<svg width="230" height="230" viewBox="0 0 175 175"><path d="M22.245 0h37.5v37.5h-37.5V0Z" fill="#D00" fill-rule="evenodd" stroke="#000" stroke-width=".75"/><path d="M67.245 0h37.5v37.5h-37.5V0Z" fill="#FFF" fill-rule="evenodd" stroke="#000" stroke-width=".75"/><path d="M112.245 0h37.5v37.5h-37.5V0ZM45 44.325h37.5v37.5H45v-37.5Z" fill-rule="evenodd" stroke="#000" stroke-width=".75"/><path d="M90 44.325h37.5v37.5H90v-37.5Z" fill="#DF4" fill-rule="evenodd" stroke="#000" stroke-width=".75"/><path d="M0 89.325h37.5v37.5H0v-37.5Z" fill="#D80" fill-rule="evenodd" stroke="#000" stroke-width=".75"/><path d="M0 44.325h37.5v37.5H0v-37.5Zm135 0h37.5v37.5H135v-37.5Zm-90 45h37.5v37.5H45v-37.5Zm45 0h37.5v37.5H90v-37.5Zm-.255 44.925h37.5v37.5h-37.5v-37.5Z" fill="#788" fill-rule="evenodd" stroke="#DDD" stroke-width="3.5"/><path d="M135 89.325h37.5v37.5H135v-37.5Z" fill="#69F" fill-rule="evenodd" stroke="#000" stroke-width=".75"/><path d="M44.745 134.25h37.5v37.5h-37.5v-37.5Z" fill="#E0E" fill-rule="evenodd" stroke="#000" stroke-width=".75"/></svg>